<svg width="301" height="71" viewBox="0 0 301 71" fill="none" xmlns="http://www.w3.org/2000/svg">
<path d="M7.55 16.0781C8.0125 16.5406 8.70625 16.7719 9.16875 16.7719C9.63125 16.7719 10.325 16.5406 10.7875 16.0781C11.7125 15.1531 11.7125 13.7656 10.7875 12.8406L5.93125 7.98437C5.00625 7.05937 3.61875 7.05937 2.69375 7.98437C1.76875 8.90937 1.76875 10.2969 2.69375 11.2219L7.55 16.0781Z" fill="#D82129"/>
<path d="M15.7937 18.8531C17.1812 18.8531 18.1062 17.9281 18.1062 16.5406V9.60312C18.1062 8.21562 17.1812 7.29062 15.7937 7.29062C14.4062 7.29062 13.4812 8.21562 13.4812 9.60312V16.5406C13.4812 17.9281 14.4062 18.8531 15.7937 18.8531Z" fill="#D82129"/>
<path d="M22.4187 16.7719C23.1124 16.7719 23.575 16.5406 24.0375 16.0781L28.8937 11.2219C29.8187 10.2969 29.8187 8.90937 28.8937 7.98437C27.9687 7.05937 26.5812 7.05937 25.6562 7.98437L20.8 12.8406C19.875 13.7656 19.875 15.1531 20.8 16.0781C21.2625 16.5406 21.9562 16.7719 22.4187 16.7719Z" fill="#D82129"/>
<path d="M69.1261 22.0844H44.8448C43.9198 22.0844 43.2261 22.5469 42.7636 23.4719L39.9886 29.0219H33.5136L35.3636 25.3219C35.8261 24.6281 35.5948 23.7031 35.3636 23.0094C34.9011 22.3156 34.2073 21.8531 33.2823 21.8531H23.5698C12.2386 21.8531 2.9886 30.4094 2.0636 41.2781C1.6011 47.0594 3.68235 52.6094 7.6136 57.0031C11.5449 61.3969 17.0948 63.7094 22.8761 63.7094C28.6573 63.7094 34.2073 61.3969 38.1386 57.0031C46.6949 47.7531 57.5636 41.2781 69.8198 38.0406C70.7449 37.8094 71.4386 36.8844 71.4386 35.7281V24.1656C71.4386 23.0094 70.5136 22.0844 69.1261 22.0844ZM22.8761 52.1469C17.7886 52.1469 13.6261 47.9844 13.6261 42.8969C13.6261 37.8094 17.7886 33.6469 22.8761 33.6469C27.9636 33.6469 32.1261 37.8094 32.1261 42.8969C32.1261 47.9844 27.9636 52.1469 22.8761 52.1469Z" fill="#D82129"/>
<path d="M94.8946 48L87.9186 24.608H92.1746L95.8866 36.96C96.2386 38.24 96.5906 39.552 96.9426 41.6C97.3266 39.52 97.6786 38.304 98.0946 36.96L101.775 24.608H106.287L109.903 36.96C110.287 38.272 110.639 39.616 111.023 41.6C111.471 39.424 111.791 38.176 112.143 36.992L115.919 24.608H120.079L112.975 48H109.007L104.015 30.976L98.9266 48H94.8946ZM126.484 48H122.58V24.192H126.516V34.24C127.508 32.704 129.364 31.712 131.636 31.712C135.54 31.712 137.588 34.176 137.588 38.272V48H133.684V39.2C133.684 36.544 132.372 35.264 130.388 35.264C127.924 35.264 126.484 36.992 126.484 39.36V48ZM143.375 29.024C142.031 29.024 140.975 27.968 140.975 26.656C140.975 25.344 142.031 24.32 143.375 24.32C144.655 24.32 145.711 25.344 145.711 26.656C145.711 27.968 144.655 29.024 143.375 29.024ZM141.423 48V32.192H145.327V48H141.423ZM148.145 43.2H151.857C151.889 44.576 152.913 45.44 154.705 45.44C156.529 45.44 157.521 44.704 157.521 43.552C157.521 42.752 157.105 42.176 155.697 41.856L152.849 41.184C150.001 40.544 148.625 39.2 148.625 36.672C148.625 33.568 151.249 31.712 154.897 31.712C158.449 31.712 160.849 33.76 160.881 36.832H157.169C157.137 35.488 156.241 34.624 154.737 34.624C153.201 34.624 152.305 35.328 152.305 36.512C152.305 37.408 153.009 37.984 154.353 38.304L157.201 38.976C159.857 39.584 161.201 40.8 161.201 43.232C161.201 46.432 158.481 48.416 154.577 48.416C150.641 48.416 148.145 46.304 148.145 43.2ZM169.549 48H165.645V35.456H162.605V32.192H165.645V27.264H169.549V32.192H172.621V35.456H169.549V48ZM178.984 48H175.112V24.192H178.984V48ZM190.152 48.416C185.448 48.416 182.152 44.992 182.152 40.096C182.152 35.136 185.384 31.712 190.024 31.712C194.76 31.712 197.768 34.88 197.768 39.808V40.992L185.864 41.024C186.152 43.808 187.624 45.216 190.216 45.216C192.36 45.216 193.768 44.384 194.216 42.88H197.832C197.16 46.336 194.28 48.416 190.152 48.416ZM190.056 34.912C187.752 34.912 186.344 36.16 185.96 38.528H193.896C193.896 36.352 192.392 34.912 190.056 34.912ZM204.508 48H200.892V24.192H204.796V34.496C205.82 32.736 207.932 31.68 210.332 31.68C214.844 31.68 217.596 35.2 217.596 40.192C217.596 45.056 214.62 48.416 210.076 48.416C207.708 48.416 205.692 47.36 204.764 45.536L204.508 48ZM204.828 40.032C204.828 42.88 206.588 44.832 209.276 44.832C212.028 44.832 213.66 42.848 213.66 40.032C213.66 37.216 212.028 35.2 209.276 35.2C206.588 35.2 204.828 37.184 204.828 40.032ZM224.641 48H220.769V24.192H224.641V48ZM227.808 40.064C227.808 35.136 231.36 31.744 236.256 31.744C241.152 31.744 244.704 35.136 244.704 40.064C244.704 44.992 241.152 48.384 236.256 48.384C231.36 48.384 227.808 44.992 227.808 40.064ZM231.712 40.064C231.712 42.944 233.568 44.896 236.256 44.896C238.944 44.896 240.8 42.944 240.8 40.064C240.8 37.184 238.944 35.232 236.256 35.232C233.568 35.232 231.712 37.184 231.712 40.064ZM250.505 48L245.385 32.192H249.449L251.529 38.976C251.881 40.224 252.201 41.6 252.489 43.072C252.777 41.536 253.065 40.544 253.577 38.976L255.753 32.192H259.721L261.833 38.976C262.025 39.616 262.665 41.984 262.857 43.04C263.113 41.856 263.625 39.968 263.913 38.976L266.025 32.192H270.153L264.681 48H261.033L258.857 41.152C258.217 39.072 257.865 37.568 257.737 36.768C257.577 37.504 257.289 38.624 256.489 41.216L254.313 48H250.505ZM278.808 48.416C274.104 48.416 270.808 44.992 270.808 40.096C270.808 35.136 274.04 31.712 278.68 31.712C283.416 31.712 286.424 34.88 286.424 39.808V40.992L274.52 41.024C274.808 43.808 276.28 45.216 278.872 45.216C281.016 45.216 282.424 44.384 282.872 42.88H286.488C285.816 46.336 282.936 48.416 278.808 48.416ZM278.712 34.912C276.408 34.912 275 36.16 274.616 38.528H282.552C282.552 36.352 281.048 34.912 278.712 34.912ZM299.468 32.128V35.744H298.028C295.212 35.744 293.452 37.248 293.452 40.32V48H289.548V32.224H293.228L293.452 34.528C294.124 32.96 295.628 31.904 297.74 31.904C298.284 31.904 298.828 31.968 299.468 32.128Z" fill="#141414"/>
</svg>
